<svg id="Слой_2" data-name="Слой 2" xmlns="http://www.w3.org/2000/svg" viewBox="0 0 101 101"><title>Artboard 2 copy 4</title><path d="M48.78,25.43A28.78,28.78,0,1,0,77.57,54.22,28.82,28.82,0,0,0,48.78,25.43Zm0,54.57A25.78,25.78,0,1,1,74.57,54.22,25.81,25.81,0,0,1,48.78,80Z"/><path d="M94.5,28A1.5,1.5,0,0,0,93,29.5V41H90V29.5a1.5,1.5,0,0,0-3,0V41H84V29.5a1.5,1.5,0,0,0-3,0v13A1.5,1.5,0,0,0,82.5,44H87V78.5a1.5,1.5,0,0,0,3,0V44h4.5A1.5,1.5,0,0,0,96,42.5v-13A1.5,1.5,0,0,0,94.5,28Z"/><path d="M13.11,28a1.5,1.5,0,0,0-1.62.26c-.36.32-8.71,8.15-8.71,28.19A1.5,1.5,0,0,0,4.28,58H11V78.5a1.5,1.5,0,0,0,3,0V29.42A1.5,1.5,0,0,0,13.11,28ZM11,55H5.8C6,44.31,8.84,37.56,11,33.92Z"/><path d="M66,55.14a1.5,1.5,0,0,0-1.71,1.25,15.35,15.35,0,0,1-15.07,13H49a15.4,15.4,0,0,1-.15-30.81,1.5,1.5,0,0,0,0-3h0A18.4,18.4,0,0,0,49,72.38h.18a18.34,18.34,0,0,0,18-15.52A1.5,1.5,0,0,0,66,55.14Z"/><path d="M57.27,40.92A15.46,15.46,0,0,1,62.71,47a1.5,1.5,0,1,0,2.69-1.34,18.45,18.45,0,0,0-6.49-7.27,1.5,1.5,0,1,0-1.63,2.52Z"/></svg>