<?xml version="1.0" encoding="iso-8859-1"?>
<!-- Generator: Adobe Illustrator 21.0.0, SVG Export Plug-In . SVG Version: 6.00 Build 0)  -->
<svg version="1.1" id="Layer_1" xmlns="http://www.w3.org/2000/svg" xmlns:xlink="http://www.w3.org/1999/xlink" x="0px" y="0px"
	 viewBox="0 0 100.353 100.353" style="enable-background:new 0 0 100.353 100.353;" xml:space="preserve">
<path d="M88.192,41.449c-1.158-4.925-4.113-8.896-8.32-11.181c-2.988-1.625-7.383-2.707-11.755-2.896
	c-8.437-0.373-31.669-8.34-34.83-9.435l-5.772-10.59c-0.263-0.482-0.768-0.782-1.317-0.782c0,0,0,0-0.001,0
	c-0.549,0-1.055,0.301-1.317,0.784L11.829,31.37c-0.263,0.483-0.24,1.071,0.059,1.532c0.278,0.429,0.753,0.685,1.258,0.685
	c0.039,0,0.077-0.001,0.115-0.004l12.486-0.96c3.537,2.915,21.054,17.431,26.429,23.43c1.594,1.777,2.644,3.101,3.486,4.166
	c0.104,0.132,0.2,0.251,0.3,0.376l-12.665,23.32c-0.395,0.728-0.125,1.638,0.602,2.034l2.731,1.484l-3.494,6.437
	c-0.395,0.729-0.125,1.639,0.603,2.034c0.228,0.124,0.473,0.182,0.714,0.182c0.532,0,1.048-0.284,1.32-0.785l3.494-6.436
	l2.731,1.484c0.222,0.121,0.468,0.182,0.716,0.182c0.143,0,0.286-0.021,0.426-0.062c0.381-0.113,0.702-0.373,0.892-0.723
	L66.481,66.83c0.77,0.109,1.548,0.17,2.333,0.17c2.015,0,4.067-0.361,6.088-1.087c4.7-1.688,8.668-5.159,11.175-9.771
	C88.584,51.53,89.335,46.311,88.192,41.449z M26.201,11.203l4.31,7.906l-5.746,10.579l-8.982,0.69L26.201,11.203z M52.113,86.996
	l-2.719-1.477c-0.005-0.003-0.008-0.006-0.012-0.008s-0.009-0.003-0.014-0.006l-2.718-1.477l11.432-21.049
	c0.762,0.709,1.649,1.355,2.916,2.042c0.797,0.433,1.623,0.789,2.466,1.08L52.113,86.996z M83.442,54.71
	c-2.155,3.965-5.547,6.941-9.553,8.381c-3.947,1.417-8.016,1.166-11.459-0.706c-2.141-1.161-2.807-2.001-4.414-4.031
	c-0.868-1.097-1.949-2.461-3.604-4.306c-5.524-6.165-22.724-20.424-26.625-23.637l5.122-9.432
	c4.913,1.696,26.538,9.011,35.078,9.389c3.939,0.17,7.847,1.118,10.454,2.535c3.446,1.871,5.872,5.149,6.832,9.231
	C86.246,46.28,85.596,50.746,83.442,54.71z"/>
</svg>
