<svg id="Layer_1" data-name="Layer 1" xmlns="http://www.w3.org/2000/svg" viewBox="0 0 101 101"><title>Artboard 2 copy 6</title><path d="M75,9H26a6,6,0,0,0-6,6v9H14.5a1.5,1.5,0,0,0,0,3H20v9H14.5a1.5,1.5,0,0,0,0,3H20v9H14.5a1.5,1.5,0,0,0,0,3H20V61H14.5a1.5,1.5,0,0,0,0,3H20V74H14.5a1.5,1.5,0,0,0,0,3H20v9a6,6,0,0,0,6,6H75a6,6,0,0,0,6-6V15A6,6,0,0,0,75,9ZM23,86V77h4.5a1.5,1.5,0,0,0,0-3H23V64h4.5a1.5,1.5,0,0,0,0-3H23V51h4.5a1.5,1.5,0,0,0,0-3H23V39h4.5a1.5,1.5,0,0,0,0-3H23V27h4.5a1.5,1.5,0,0,0,0-3H23V15a3,3,0,0,1,3-3H64V89H26A3,3,0,0,1,23,86Zm55,0a3,3,0,0,1-3,3H67V12h8a3,3,0,0,1,3,3Z"/></svg>