<?xml version="1.0" encoding="iso-8859-1"?>
<!-- Generator: Adobe Illustrator 22.0.1, SVG Export Plug-In . SVG Version: 6.00 Build 0)  -->
<svg version="1.1" id="Layer_1" xmlns="http://www.w3.org/2000/svg" xmlns:xlink="http://www.w3.org/1999/xlink" x="0px" y="0px"
	 viewBox="0 0 100.25 100.25" style="enable-background:new 0 0 100.25 100.25;" xml:space="preserve">
<g>
	<path d="M32.089,32.131c1.556,1.204,3.349,1.84,5.14,1.84c0.334,0,0.667-0.022,1-0.067c5.165-0.696,8.723-6.605,7.932-13.174
		c-0.444-3.695-2.16-6.945-4.707-8.916c-1.845-1.428-4.025-2.061-6.139-1.773c-5.164,0.696-8.722,6.606-7.932,13.175
		C27.827,26.91,29.542,30.16,32.089,32.131z M35.715,13.014c0.205-0.028,0.41-0.042,0.615-0.042c1.127,0,2.253,0.414,3.287,1.214
		c1.888,1.461,3.22,4.041,3.564,6.902c0.596,4.949-1.806,9.365-5.354,9.843c-1.33,0.181-2.68-0.226-3.902-1.173
		c-1.888-1.461-3.22-4.041-3.564-6.901C29.766,17.908,32.168,13.492,35.715,13.014z"/>
	<path d="M61.111,33.881c0.386,0.061,0.775,0.091,1.164,0.091c1.731,0,3.471-0.595,4.997-1.726c2.586-1.916,4.366-5.132,4.883-8.825
		c0.918-6.554-2.515-12.545-7.653-13.354c-2.101-0.331-4.29,0.248-6.161,1.634c-2.586,1.916-4.365,5.132-4.883,8.824
		C52.538,27.078,55.971,33.07,61.111,33.881z M56.429,20.941c0.4-2.858,1.783-5.412,3.698-6.83c1.014-0.751,2.104-1.137,3.192-1.137
		c0.239,0,0.478,0.019,0.716,0.056c3.532,0.556,5.842,5.031,5.149,9.975c-0.4,2.858-1.783,5.411-3.697,6.83
		c-1.236,0.916-2.586,1.289-3.909,1.083C58.045,30.36,55.734,25.885,56.429,20.941z"/>
	<path d="M89.684,25.508c-1.949-0.758-4.141-0.641-6.174,0.33c-2.873,1.372-5.185,4.239-6.343,7.867
		c-2.014,6.312,0.221,12.954,4.98,14.806c0.849,0.33,1.743,0.494,2.65,0.494c1.177,0,2.375-0.276,3.523-0.824
		c2.873-1.371,5.185-4.239,6.343-7.867C96.678,34.002,94.443,27.36,89.684,25.508z M91.807,39.402
		c-0.895,2.801-2.681,5.071-4.778,6.072c-0.904,0.432-2.298,0.823-3.793,0.241c-3.256-1.267-4.726-6.349-3.211-11.098
		c0.895-2.801,2.681-5.071,4.778-6.072c0.577-0.275,1.354-0.535,2.229-0.535c0.496,0,1.023,0.083,1.564,0.294
		C91.852,29.57,93.321,34.653,91.807,39.402z"/>
	<path d="M49.5,41.249c-18.472,0-33.5,14.717-33.5,32.806v0.454c0,10.685,8.913,18.741,20.731,18.741h25.847
		C74.411,93.25,83,85.368,83,74.509v-0.454C83,55.966,67.972,41.249,49.5,41.249z M80,74.509c0,9.121-7.327,15.741-17.422,15.741
		H36.731C26.457,90.25,19,83.63,19,74.509v-0.454c0-16.435,13.682-29.806,30.5-29.806c16.817,0,30.5,13.371,30.5,29.806V74.509z"/>
	<path d="M23.931,34.838c-1.555-6.505-6.887-10.821-11.887-9.63h0C7.046,26.404,4.245,32.669,5.8,39.174
		c1.381,5.775,5.74,9.828,10.199,9.828c0.563,0,1.128-0.065,1.689-0.199C22.686,47.608,25.487,41.343,23.931,34.838z M8.718,38.477
		c-1.171-4.896,0.634-9.54,4.024-10.351h0c3.391-0.811,7.101,2.513,8.271,7.41c1.171,4.896-0.634,9.54-4.023,10.35
		C13.595,46.693,9.889,43.373,8.718,38.477z"/>
	<path d="M65.5,61.25H57v-8.5c0-0.828-0.672-1.5-1.5-1.5h-12c-0.829,0-1.5,0.672-1.5,1.5v8.5h-8.5c-0.829,0-1.5,0.672-1.5,1.5v12
		c0,0.828,0.671,1.5,1.5,1.5H42v8.5c0,0.828,0.671,1.5,1.5,1.5h12c0.828,0,1.5-0.672,1.5-1.5v-8.5h8.5c0.828,0,1.5-0.672,1.5-1.5
		v-12C67,61.922,66.328,61.25,65.5,61.25z M64,73.25h-8.5c-0.828,0-1.5,0.672-1.5,1.5v8.5h-9v-8.5c0-0.828-0.671-1.5-1.5-1.5H35v-9
		h8.5c0.829,0,1.5-0.672,1.5-1.5v-8.5h9v8.5c0,0.828,0.672,1.5,1.5,1.5H64V73.25z"/>
</g>
</svg>
