<?xml version="1.0" encoding="iso-8859-1"?>
<!-- Generator: Adobe Illustrator 21.0.2, SVG Export Plug-In . SVG Version: 6.00 Build 0)  -->
<svg version="1.1" id="Layer_1" xmlns="http://www.w3.org/2000/svg" xmlns:xlink="http://www.w3.org/1999/xlink" x="0px" y="0px"
	 viewBox="0 0 100.75 100.75" style="enable-background:new 0 0 100.75 100.75;" xml:space="preserve">
<path d="M93.92,45.119L52.016,9.308c-0.565-0.484-1.399-0.48-1.959,0.009L9.051,45c-0.625,0.543-0.69,1.491-0.146,2.116
	c0.543,0.625,1.491,0.691,2.116,0.146l8.839-7.692v47.982c0,0.829,0.671,1.5,1.5,1.5h58.731c0.829,0,1.5-0.671,1.5-1.5V38.528
	l10.38,8.871c0.283,0.242,0.629,0.36,0.974,0.36c0.424,0,0.845-0.178,1.142-0.525C94.625,46.604,94.55,45.657,93.92,45.119z
	 M78.591,86.053H22.86V36.961L51.051,12.43l27.541,23.536L78.591,86.053L78.591,86.053z"/>
<path d="M49.226,40.051v14.986H34.245c-0.829,0-1.5,0.671-1.5,1.5s0.671,1.5,1.5,1.5h14.981v14.98c0,0.829,0.671,1.5,1.5,1.5
	s1.5-0.671,1.5-1.5v-14.98h14.981c0.829,0,1.5-0.671,1.5-1.5s-0.671-1.5-1.5-1.5H52.226V40.051c0-0.829-0.671-1.5-1.5-1.5
	S49.226,39.223,49.226,40.051z"/>
</svg>
